# xmcd CD database file
#
# Track frame offsets:
#	150
#	21656
#	44397
#
# Disc length: 877 seconds
#
# Revision: 0
# Processed by: cddbd v1.5.1PL0 Copyright (c) Steve Scherf et al.
# Submitted via: CDex 1.51
#
DISCID=23036b03
DTITLE=ソニン - あすなろ銀河
DYEAR=2005
DGENRE=JPop
TTITLE0=あすなろ銀河
TTITLE1=誰より好きなのに
TTITLE2=あすなろ銀河 (Instrumental)
EXTD=YEAR: 2005
EXTT0=
EXTT1=
EXTT2=
PLAYORDER=
